<?xml version="1.0"?>
<svg width="640" height="480" xmlns="http://www.w3.org/2000/svg" xmlns:svg="http://www.w3.org/2000/svg">
 <!-- Created with SVG-edit - https://github.com/SVG-Edit/svgedit-->
 <g class="layer">
  <title>Layer 1</title>
  <ellipse cx="287" cy="142" fill="none" id="svg_2" rx="127" ry="61" stroke="#000000" stroke-width="5"/>
  <line fill="none" id="svg_4" stroke="#000000" stroke-width="5" x1="211" x2="232" y1="92" y2="42"/>
  <line fill="none" id="svg_5" stroke="#000000" stroke-width="5" x1="257" x2="231" y1="84" y2="43"/>
  <line fill="none" id="svg_7" stroke="#000000" stroke-width="5" x1="295" x2="316" y1="83" y2="33"/>
  <line fill="none" id="svg_6" stroke="#000000" stroke-width="5" x1="341" x2="315" y1="87" y2="40.000001"/>
  <ellipse cx="236" cy="116" fill="none" id="svg_8" rx="9" ry="16" stroke="#000000" stroke-width="5"/>
  <ellipse cx="309" cy="116" fill="none" id="svg_10" rx="9" ry="16" stroke="#000000" stroke-width="5"/>
  <ellipse cx="275" cy="148" fill="none" id="svg_11" rx="5" ry="5" stroke="#000000" stroke-width="5"/>
  <line fill="none" id="svg_13" stroke="#000000" stroke-width="5" x1="277" x2="303" y1="146" y2="136"/>
  <line fill="none" id="svg_14" stroke="#000000" stroke-width="5" transform="rotate(20.556, 294, 147)" x1="281" x2="307" y1="152" y2="142"/>
  <line fill="none" id="svg_15" stroke="#000000" stroke-width="5" transform="rotate(28.3008, 256, 142)" x1="243" x2="269" y1="147" y2="137"/>
  <line fill="none" id="svg_16" stroke="#000000" stroke-width="5" x1="245" x2="271" y1="161" y2="151"/>
  <line fill="none" id="svg_17" stroke="#000000" stroke-width="5" transform="rotate(20.556, 255, 148)" x1="241.999985" x2="267.999985" y1="153" y2="143"/>
  <line fill="none" id="svg_18" stroke="#000000" stroke-width="5" transform="rotate(39.8056, 292.574, 155.311)" x1="279.573751" x2="305.573751" y1="159.415213" y2="151.207728"/>
  <path d="m275,149c-1.166656,1 -1.513977,1.634186 -1.985321,2.399994c-0.517792,0.841278 -1.392731,1.3974 -1.014679,1.600006c0.705109,0.377899 1.815613,0.002975 1.998657,-0.801331c0.199402,-0.876266 0.001343,-1.798676 0.001343,-2.698669c0,-0.899994 0,-1.800003 0,-2.699997l0.000153,-0.899841" fill="none" id="svg_19" stroke="#000000" stroke-width="5"/>
  <polyline fill="none" id="svg_21" points="309,114 309,115.8 309,116.7" stroke="#000000" stroke-linecap="round" stroke-width="5"/>
  <path d="m235,114c0.166672,1.833336 0.939102,2.215225 1,3.099998c0.061798,0.897881 0,1.700005 0,2.599998l-0.057159,0.942833l-0.658844,0.44117l-0.505325,0.79467" fill="none" id="svg_22" stroke="#000000" stroke-width="5"/>
  <path d="m242,174c1.800003,0 2.47403,0.203186 3.166672,0.833328c0.599731,0.545609 0.785538,1.267944 0.833328,2.166672c0.042725,0.803406 0.482544,1.6539 0.97467,2.389328c0.447998,0.669479 1.069229,1.272476 1.729828,1.663345c0.785446,0.464752 1.60405,0.811813 2.495499,0.948654c0.915787,0.140579 1.454086,0.808548 2.400009,0.988007c0.884277,0.16777 1.799988,0.010666 2.699982,0.010666c0.900024,0 1.800018,0 2.700012,0c0.799988,0 1.700012,0 2.600006,0c0.899994,0 1.918488,0.112671 2.399994,-0.520828c0.517548,-0.680908 0.752716,-1.629715 1.166656,-2.479172c0.317871,-0.652267 0.795441,-1.410736 0.833496,-2.321167c0.03418,-0.817581 0.57019,-1.605576 1.025177,-2.289505c0.479614,-0.720947 0.974548,-0.768051 0.97467,0.110672c0.000122,0.900055 -0.452972,1.607193 -0.833344,2.5c-0.32019,0.751541 -0.177338,1.700058 -0.166656,2.600006c0.010437,0.879349 0.627106,1.394394 1.399994,1.825333c0.820068,0.457245 1.485352,0.57399 2.425354,0.574661c1.007996,0.000717 1.870148,0 2.774658,0c0.899994,0 1.799988,0 2.699982,0c0.900024,0 1.800018,0 2.700012,0c0.799988,0 1.700073,0.010666 2.600006,0c0.879333,-0.010422 1.343628,-0.751633 2.104492,-0.995499c0.895477,-0.287018 1.348175,-0.709 1.816345,-1.504501l0.677826,-0.699997l0.515991,-0.600006" fill="none" id="svg_23" stroke="#000000" stroke-width="5"/>
 </g>
</svg>